# This file uses centimeters as units for non-parametric coordinates.

v -0.288303 -0.023213 0.413481
v 0.285533 -0.023213 0.413481
v -0.288279 0.026270 0.413468
v 0.285512 0.026844 0.413466
v -0.288303 0.023213 -0.413481
v 0.285533 0.023213 -0.413481
v -0.288303 -0.023213 -0.413481
v 0.285533 -0.023213 -0.413481
v 0.000000 -0.023634 0.413902
v 0.000000 -0.023634 -0.413902
v 0.000000 0.023634 -0.413902
v 0.000000 0.023634 0.413902
v 0.214489 -0.023634 0.413902
v 0.214489 -0.023634 -0.413902
v 0.214489 0.023634 -0.413902
v 0.214473 0.023634 0.413890
v 0.285939 0.023634 0.310333
v 0.285955 -0.023634 0.310344
v 0.214489 -0.024899 0.310344
v 0.000000 -0.024899 0.310344
v -0.288725 -0.023634 0.313024
v -0.288707 0.023634 0.313015
v 0.000000 0.024899 0.310344
v 0.214473 0.024899 0.310333
v 0.285955 -0.023634 0.103448
v 0.285955 0.023634 0.103448
v 0.214489 0.024899 0.103448
v 0.000000 0.024899 0.103448
v -0.288712 0.023634 0.103451
v -0.288725 -0.023634 0.103448
v 0.000000 -0.024899 0.103448
v 0.214489 -0.024899 0.103448
v 0.285955 0.023634 -0.103448
v 0.285955 -0.023634 -0.103448
v 0.214489 -0.024899 -0.103448
v 0.000000 -0.024899 -0.103448
v -0.288725 -0.023634 -0.103448
v -0.288700 0.025764 -0.103448
v 0.000000 0.024899 -0.103448
v 0.214489 0.024899 -0.103448
v 0.285955 -0.023634 -0.310344
v 0.285955 0.023634 -0.310344
v 0.214489 0.024899 -0.310344
v 0.000000 0.024899 -0.310344
v -0.288712 0.023634 -0.313028
v -0.288725 -0.023634 -0.313024
v 0.000000 -0.024899 -0.310344
v 0.214489 -0.024899 -0.310344
v -0.233065 0.024899 0.103451
v -0.233060 0.024899 0.313015
v -0.233060 0.023634 0.413892
v -0.233078 -0.023634 0.413902
v -0.233078 -0.024899 0.313025
v -0.233078 -0.024899 0.103448
v -0.233078 -0.024899 -0.103448
v -0.233078 -0.024899 -0.313024
v -0.233078 -0.023634 -0.413902
v -0.233078 0.023634 -0.413902
v -0.233065 0.024899 -0.313028
v -0.233052 0.024899 -0.103448
v -0.192858 -0.024899 -0.103448
v -0.192858 -0.024899 -0.310344
v -0.192858 -0.023634 -0.413902
v -0.192858 0.023634 -0.413902
v -0.192858 0.024899 -0.310344
v -0.192858 0.024899 -0.103448
v -0.192858 0.024899 0.103448
v -0.192858 0.024899 0.310344
v -0.192858 0.023634 0.413902
v -0.192858 -0.023634 0.413902
v -0.192858 -0.024899 0.310344
v -0.192858 -0.024899 0.103448
vt 0.979391 0.544242
vt 0.946984 0.544242
vt 0.946984 0.392885
vt 0.979391 0.392885
vt 0.979391 0.695598
vt 0.946984 0.695598
vt 0.979391 0.317207
vt 0.928010 0.317207
vt 0.979391 0.846955
vt 0.928010 0.846955
vt 0.979391 0.922633
vt 0.928010 0.922633
vt 0.509968 0.544241
vt 0.458300 0.544241
vt 0.439538 0.390924
vt 0.509968 0.390924
vt 0.509968 0.695598
vt 0.439538 0.695598
vt 0.439538 0.317207
vt 0.490985 0.317207
vt 0.509968 0.848916
vt 0.439538 0.848916
vt 0.509968 0.974290
vt 0.490985 0.922633
vt 0.719234 0.392885
vt 0.719234 0.544242
vt 0.578096 0.544241
vt 0.578096 0.392885
vt 0.230272 0.544241
vt 0.230272 0.392885
vt 0.371505 0.392885
vt 0.371505 0.544241
vt 0.876189 0.544242
vt 0.876189 0.392885
vt 0.073224 0.544241
vt 0.021107 0.544241
vt 0.021107 0.392885
vt 0.073224 0.392885
vt 0.230272 0.846955
vt 0.230272 0.695598
vt 0.371505 0.695598
vt 0.371505 0.846955
vt 0.073224 0.846955
vt 0.021107 0.846955
vt 0.021107 0.695598
vt 0.073224 0.695598
vt 0.876189 0.846955
vt 0.876189 0.695598
vt 0.719234 0.695598
vt 0.719234 0.846955
vt 0.578096 0.846955
vt 0.578096 0.695598
vt 0.548673 0.544241
vt 0.548673 0.390924
vt 0.548673 0.848916
vt 0.548673 0.695598
vt 0.400833 0.695598
vt 0.400833 0.848916
vt 0.400833 0.390924
vt 0.400833 0.544241
vt 0.876189 0.265443
vt 0.021107 0.317207
vt 0.719234 0.265443
vt 0.371505 0.317207
vt 0.400833 0.317207
vt 0.578096 0.317207
vt 0.548673 0.317207
vt 0.719234 0.317207
vt 0.876189 0.317207
vt 0.876189 0.922633
vt 0.719234 0.922633
vt 0.578096 0.922633
vt 0.548673 0.922633
vt 0.548673 0.974290
vt 0.578096 0.974290
vt 0.719234 0.974290
vt 0.073224 0.922633
vt 0.021107 0.922633
vt 0.876189 0.299165
vt 0.928010 0.299165
vt 0.719234 0.299165
vt 0.578096 0.299165
vt 0.548673 0.299165
vt 0.509968 0.299165
vt 0.719234 0.941883
vt 0.578096 0.941883
vt 0.876189 0.941883
vt 0.548673 0.941883
vt 0.928010 0.941883
vt 0.509968 0.941883
vt 0.073224 0.317207
vt 0.928010 0.265443
vt 0.578096 0.265443
vt 0.230272 0.317207
vt 0.548673 0.265443
vt 0.509968 0.265443
vt 0.371505 0.922633
vt 0.400833 0.922633
vt 0.458300 0.922633
vt 0.876189 0.974290
vt 0.928010 0.974290
vt 0.230272 0.922633
vt 0.928010 0.695598
vt 0.946984 0.846955
vt 0.928010 0.544242
vt 0.928010 0.392885
vt 0.946984 0.922633
vt 0.946984 0.317207
vt 0.490985 0.848916
vt 0.509968 0.922633
vt 0.490985 0.695598
vt 0.490985 0.544241
vt 0.490985 0.390924
vt 0.509968 0.317207
vt 0.458300 0.848916
vt 0.458300 0.695598
vt 0.439538 0.544241
vt 0.458300 0.390924
vt 0.458300 0.317207
vt 0.439538 0.922633
vn 0.001874 0.000164 0.999998
vn 0.001474 0.000154 0.999999
vn 0.005938 0.000268 0.999982
vn 0.005938 0.000268 0.999982
vn 0.000000 0.000000 -1.000000
vn 0.000000 0.000000 -1.000000
vn 0.000000 0.000000 -1.000000
vn 0.000000 0.000000 -1.000000
vn 0.000001 0.999992 0.004075
vn 0.000000 1.000000 0.000000
vn -0.000001 1.000000 0.000000
vn 0.000021 0.999992 0.004047
vn 1.000000 0.000085 0.000019
vn 1.000000 0.000085 0.000019
vn 0.999998 0.000257 0.001691
vn 0.999999 0.000240 0.001374
vn 0.000000 -1.000000 0.000000
vn 0.000000 -0.999992 0.004075
vn 0.000023 -0.999992 0.004047
vn 0.000000 -1.000000 0.000000
vn 0.017698 0.999843 0.000001
vn 0.004424 0.999990 0.000001
vn 0.001855 0.999996 0.002305
vn 0.007794 0.999965 -0.002978
vn 0.001409 0.000000 -0.999999
vn 0.001409 0.000000 -0.999999
vn 0.005919 0.000000 -0.999983
vn 0.005919 0.000000 -0.999983
vn 0.004424 -0.999990 0.000000
vn 0.017698 -0.999843 0.000000
vn 0.015748 -0.999872 0.002733
vn 0.003913 -0.999985 0.003725
vn 0.000000 -0.999992 -0.004075
vn 0.000000 -1.000000 0.000000
vn 0.000000 -1.000000 0.000000
vn 0.000023 -0.999992 -0.004047
vn 0.003913 -0.999985 -0.003725
vn 0.015748 -0.999872 -0.002733
vn 0.017698 -0.999843 0.000000
vn 0.004424 -0.999990 0.000000
vn 0.999999 0.000000 -0.001308
vn 0.999999 0.000000 -0.001308
vn 1.000000 0.000000 0.000000
vn 1.000000 0.000000 0.000000
vn 0.015748 0.999872 -0.002733
vn 0.003913 0.999985 -0.003725
vn 0.004424 0.999990 0.000000
vn 0.017698 0.999843 0.000000
vn 0.000000 1.000000 0.000000
vn 0.000000 0.999992 -0.004075
vn 0.000022 0.999992 -0.004047
vn -0.000001 1.000000 0.000000
vn 0.000014 0.000062 1.000000
vn 0.000014 0.000062 1.000000
vn -0.000020 0.000017 1.000000
vn -0.000020 0.000017 1.000000
vn -0.007691 0.999969 0.001487
vn -0.006709 0.999977 0.000535
vn -0.004150 0.999977 -0.005331
vn -0.002094 0.999998 -0.000000
vn -0.013212 -0.999913 0.000000
vn -0.011744 -0.999926 -0.003314
vn -0.011744 -0.999926 0.003314
vn -0.013212 -0.999913 0.000000
vn -0.005041 0.000188 0.999987
vn -0.004394 0.000177 0.999990
vn -0.004269 0.000000 -0.999991
vn -0.004269 0.000000 -0.999991
vn -1.000000 0.000363 -0.000009
vn -1.000000 0.000361 -0.000008
vn -0.999999 0.000364 0.001351
vn -0.999999 0.000372 0.001642
vn -0.999999 0.000321 -0.001150
vn -0.999999 0.000315 -0.001247
vn -1.000000 0.000395 0.000000
vn -1.000000 0.000395 0.000000
vn 0.999991 0.000386 0.004107
vn 0.999991 0.000386 0.004107
vn 0.002970 -0.999933 0.011205
vn 0.011858 -0.999896 0.008183
vn 0.000000 -0.999925 0.012214
vn 0.000070 -0.999925 0.012242
vn -0.008643 -0.999912 0.010080
vn -0.999991 0.000442 0.004221
vn -0.999991 0.000442 0.004221
vn 0.000068 0.999925 0.012242
vn 0.007067 0.999974 0.001695
vn 0.000001 0.999925 0.012214
vn -0.003214 0.999970 0.007123
vn -0.013673 0.999862 -0.009436
vn 0.999992 0.000000 -0.004088
vn 0.999992 0.000000 -0.004088
vn 0.002970 0.999933 -0.011205
vn 0.011858 0.999896 -0.008183
vn 0.000000 0.999925 -0.012214
vn 0.000070 0.999925 -0.012241
vn -0.008645 0.999912 -0.010078
vn -0.999991 0.000135 -0.004134
vn -0.999991 0.000135 -0.004134
vn -0.008643 -0.999912 -0.010080
vn 0.000070 -0.999925 -0.012242
vn 0.000000 -0.999925 -0.012214
vn 0.002970 -0.999933 -0.011205
vn 0.011858 -0.999896 -0.008183
vn -0.003598 0.999994 -0.000001
vn -0.013387 0.999907 0.002513
vn -0.012005 0.999926 -0.002086
vn 0.012390 0.999900 -0.006835
vn -0.007637 0.000234 0.999971
vn -0.007637 0.000234 0.999971
vn -0.020288 -0.999790 0.002739
vn -0.015242 -0.999848 0.008408
vn -0.022726 -0.999742 0.000000
vn -0.022726 -0.999742 0.000000
vn -0.020288 -0.999790 -0.002739
vn -0.015242 -0.999848 -0.008408
vn -0.007614 0.000000 -0.999971
vn -0.007614 0.000000 -0.999971
vn -0.007479 0.999953 -0.006188
vn -0.015242 0.999849 -0.008405
s 1
f 16/79/1 13/61/2 2/92/3 4/80/4
s 2
f 11/85/5 10/76/6 63/75/7 64/86/8
s 3
f 23/25/9 28/26/10 67/27/11 68/28/12
s 4
f 25/1/13 26/2/14 17/3/15 18/4/16
s 5
f 31/29/17 20/30/18 71/31/19 72/32/20
s 3
f 26/105/21 27/33/22 24/34/23 17/106/24
s 2
f 14/100/25 15/87/26 6/89/27 8/101/28
s 5
f 32/35/29 25/36/30 18/37/31 19/38/32
f 47/39/33 36/40/34 61/41/35 62/42/36
f 48/43/37 41/44/38 34/45/39 35/46/40
s 4
f 41/9/41 42/104/42 33/6/43 34/5/44
s 3
f 42/10/45 43/47/46 40/48/47 33/103/48
f 39/49/49 44/50/50 65/51/51 66/52/52
s 5
f 32/35/29 19/38/32 20/30/18 31/29/17
f 47/39/33 48/43/37 35/46/40 36/40/34
s 2
f 15/87/26 14/100/25 10/76/6 11/85/5
s 3
f 39/49/49 40/48/47 43/47/46 44/50/50
f 23/25/9 24/34/23 27/33/22 28/26/10
s 1
f 9/63/53 12/81/54 69/82/55 70/93/56
s 3
f 67/27/11 49/53/57 50/54/58 68/28/12
f 59/55/59 60/56/60 66/52/52 65/51/51
s 5
f 55/57/61 56/58/62 62/42/36 61/41/35
f 53/59/63 54/60/64 72/32/20 71/31/19
s 1
f 70/93/56 69/82/55 51/83/65 52/95/66
s 2
f 57/74/67 58/88/68 64/86/8 63/75/7
s 12
f 29/112/69 30/14/70 21/118/71 22/113/72
f 45/109/73 46/115/74 37/116/75 38/111/76
s 4
f 2/7/77 18/4/16 17/3/15 4/108/78
s 5
f 13/91/79 19/38/32 18/37/31 2/62/80
f 19/38/32 13/91/79 9/94/81 20/30/18
f 20/30/18 9/94/81 70/64/82 71/31/19
f 70/64/82 52/65/83 53/59/63 71/31/19
s 12
f 22/113/72 21/118/71 1/119/84 3/20/85
s 3
f 69/66/86 68/28/12 50/54/58 51/67/87
f 69/66/86 12/68/88 23/25/9 68/28/12
f 12/68/88 16/69/89 24/34/23 23/25/9
f 17/106/24 24/34/23 16/69/89 4/8/90
f 60/56/60 49/53/57 67/27/11 66/52/52
s 4
f 34/5/44 33/6/43 26/2/14 25/1/13
s 5
f 35/46/40 34/45/39 25/36/30 32/35/29
f 35/46/40 32/35/29 31/29/17 36/40/34
f 36/40/34 31/29/17 72/32/20 61/41/35
f 54/60/64 55/57/61 61/41/35 72/32/20
s 12
f 38/111/76 37/116/75 30/14/70 29/112/69
s 3
f 67/27/11 28/26/10 39/49/49 66/52/52
f 28/26/10 27/33/22 40/48/47 39/49/49
f 26/105/21 33/103/48 40/48/47 27/33/22
s 4
f 42/104/42 41/9/41 8/11/91 6/107/92
s 3
f 15/70/93 43/47/46 42/10/45 6/12/94
f 43/47/46 15/70/93 11/71/95 44/50/50
f 44/50/50 11/71/95 64/72/96 65/51/51
f 64/72/96 58/73/97 59/55/59 65/51/51
s 12
f 7/99/98 46/115/74 45/109/73 5/24/99
s 5
f 62/42/36 56/58/62 57/98/100 63/97/101
f 63/97/101 10/102/102 47/39/33 62/42/36
f 10/102/102 14/77/103 48/43/37 47/39/33
f 41/44/38 48/43/37 14/77/103 8/78/104
s 3
f 38/17/105 29/13/106 49/53/57 60/56/60
f 29/13/106 22/16/107 50/54/58 49/53/57
f 3/114/108 51/67/87 50/54/58 22/16/107
s 1
f 1/96/109 52/95/66 51/83/65 3/84/110
s 5
f 21/15/111 53/59/63 52/65/83 1/19/112
f 21/15/111 30/117/113 54/60/64 53/59/63
f 30/117/113 37/18/114 55/57/61 54/60/64
f 37/18/114 46/22/115 56/58/62 55/57/61
f 7/120/116 57/98/100 56/58/62 46/22/115
s 2
f 5/90/117 58/88/68 57/74/67 7/23/118
s 3
f 45/21/119 59/55/59 58/73/97 5/110/120
f 45/21/119 38/17/105 60/56/60 59/55/59
s 1
f 9/63/53 13/61/2 16/79/1 12/81/54
