# This file uses centimeters as units for non-parametric coordinates.

v -1.865900 0.002663 1.000000
v -1.865900 -0.002663 1.000000
v -1.857303 -0.002663 1.099501
v -1.834408 -0.002485 1.075350
v -1.821817 -0.002307 1.040249
v -1.816723 -0.002307 1.000000
v -1.821817 -0.002307 0.959751
v -1.834408 -0.002485 0.924650
v -1.857303 -0.002663 0.900499
v -1.865900 -0.002663 0.900499
v -1.865900 -0.002663 1.099501
v -1.857303 0.002663 0.900499
v -1.834408 0.002485 0.924650
v -1.821817 0.002307 0.959751
v -1.816723 0.002307 1.000000
v -1.821817 0.002307 1.040249
v -1.834408 0.002485 1.075350
v -1.857303 0.002663 1.099501
v -1.865900 0.002663 1.099501
v -1.865900 0.002663 0.900499
v -2.134100 0.002663 1.000000
v -2.134100 -0.002663 1.000000
v -2.142697 -0.002663 1.099501
v -2.165591 -0.002485 1.075350
v -2.178183 -0.002307 1.040249
v -2.183277 -0.002307 1.000000
v -2.178183 -0.002307 0.959751
v -2.165591 -0.002485 0.924650
v -2.142697 -0.002663 0.900499
v -2.134100 -0.002663 0.900499
v -2.134100 -0.002663 1.099501
v -2.142697 0.002663 0.900499
v -2.165591 0.002485 0.924650
v -2.178183 0.002307 0.959751
v -2.183277 0.002307 1.000000
v -2.178183 0.002307 1.040249
v -2.165591 0.002485 1.075350
v -2.142697 0.002663 1.099501
v -2.134100 0.002663 1.099501
v -2.134100 0.002663 0.900499
vt 0.983722 0.151838
vt 0.980989 0.130238
vt 0.874902 0.203520
vt 0.983722 0.151838
vt 0.894203 0.203520
vt 0.894203 0.206186
vt 0.974231 0.192277
vt 0.874902 0.206186
vt 0.974231 0.111400
vt 0.961944 0.098439
vt 0.827187 0.206186
vt 0.974231 0.111400
vt 0.980989 0.173439
vt 0.980989 0.173439
vt 0.957331 0.151838
vt 0.957331 0.151838
vt 0.827187 0.203520
vt 0.957331 0.205238
vt 0.957331 0.098439
vt 0.957331 0.098439
vt 0.838768 0.203520
vt 0.838768 0.206186
vt 0.911035 0.203520
vt 0.922617 0.203520
vt 0.922617 0.206186
vt 0.911035 0.206186
vt 0.855600 0.203520
vt 0.855600 0.206186
vt 0.928278 0.100492
vt 0.928278 0.097826
vt 0.928229 0.203520
vt 0.821525 0.100492
vt 0.812175 0.098439
vt 0.874901 0.097826
vt 0.874901 0.100492
vt 0.838768 0.203520
vt 0.838768 0.206186
vt 0.827187 0.206186
vt 0.812175 0.205238
vt 0.827187 0.203520
vt 0.855600 0.206186
vt 0.961944 0.205238
vt 0.855600 0.203520
vt 0.874902 0.203520
vt 0.874902 0.206186
vt 0.894203 0.203520
vt 0.894203 0.206186
vt 0.911035 0.206186
vt 0.961944 0.098439
vt 0.957331 0.205238
vt 0.961944 0.205238
vt 0.974231 0.192277
vt 0.911035 0.203520
vt 0.922617 0.206186
vt 0.980989 0.130238
vt 0.922617 0.203520
vt 0.816788 0.205238
vt 0.928229 0.206186
vt 0.816788 0.151838
vt 0.816788 0.098439
vt 0.812175 0.098439
vt 0.799888 0.111400
vt 0.793130 0.130238
vt 0.790396 0.151838
vt 0.793130 0.173439
vt 0.799888 0.192277
vt 0.816788 0.098439
vt 0.928229 0.203520
vt 0.816788 0.151838
vt 0.816788 0.205238
vt 0.812175 0.205238
vt 0.799888 0.192277
vt 0.793130 0.173439
vt 0.790396 0.151838
vt 0.793130 0.130238
vt 0.799888 0.111400
vt 0.874902 0.097826
vt 0.874902 0.100492
vt 0.928278 0.097826
vt 0.821574 0.206186
vt 0.821574 0.203520
vt 0.821574 0.206186
vt 0.928229 0.206186
vt 0.821525 0.097826
vt 0.821525 0.097826
vt 0.821525 0.100492
vt 0.928278 0.100492
vt 0.821574 0.203520
vn 1.000000 0.000000 -0.000000
vn 0.973041 -0.000021 0.230630
vn 0.973042 -0.000021 0.230630
vn 1.000000 0.000000 -0.000000
vn 0.725728 0.000000 -0.687981
vn 0.725728 0.000000 -0.687981
vn 0.853777 0.000000 -0.520639
vn 0.853777 0.000000 -0.520639
vn 0.853772 -0.000028 0.520646
vn 0.725728 -0.000013 0.687982
vn 0.725728 -0.000013 0.687982
vn 0.853781 -0.000028 0.520633
vn 0.973041 0.000000 -0.230630
vn 0.973041 0.000000 -0.230630
vn 0.007695 0.999970 0.000000
vn 0.004440 0.999990 -0.000384
vn 0.007701 0.999970 -0.000856
vn 0.007695 -0.999970 0.000000
vn 0.004440 -0.999990 0.000384
vn 0.007700 -0.999970 0.000856
vn 0.000000 0.000000 -1.000000
vn 0.000000 0.000000 -1.000000
vn 0.000000 0.000000 -1.000000
vn 0.000000 0.000000 -1.000000
vn 0.000000 0.000000 1.000000
vn 0.000000 0.000000 1.000000
vn 0.000000 0.000000 1.000000
vn 0.000000 0.000000 1.000000
vn -1.000000 0.000001 0.000000
vn -1.000000 0.000002 0.000000
vn -1.000000 0.000002 0.000000
vn -1.000000 0.000001 0.000000
vn -1.000000 0.000000 0.000000
vn -1.000000 0.000000 0.000000
vn 0.007700 -0.999970 -0.000856
vn 0.004440 -0.999990 -0.000384
vn 0.008826 -0.999961 -0.000822
vn 0.007238 -0.999974 0.000000
vn 0.008826 -0.999961 0.000822
vn 0.000000 -1.000000 0.000000
vn 0.000000 -1.000000 0.000000
vn 0.007701 0.999970 0.000856
vn 0.004440 0.999990 0.000384
vn 0.008826 0.999961 0.000823
vn 0.007239 0.999974 0.000000
vn 0.008826 0.999961 -0.000822
vn 0.000000 1.000000 0.000000
vn 0.000000 1.000000 0.000000
vn -0.007238 -0.999974 0.000000
vn -0.007695 -0.999970 -0.000000
vn -0.008826 -0.999961 -0.000822
vn -0.008826 0.999961 -0.000823
vn -0.007695 0.999970 0.000000
vn -0.007239 0.999974 0.000000
vn -0.008826 -0.999961 0.000822
vn -0.008826 0.999961 0.000823
vn -0.004440 0.999990 -0.000384
vn 0.000000 1.000000 0.000000
vn -0.007701 0.999970 -0.000856
vn 0.000000 -1.000000 0.000000
vn -0.004440 -0.999990 -0.000384
vn -0.007700 -0.999970 -0.000856
vn -0.004440 -0.999990 0.000384
vn 0.000000 -1.000000 0.000000
vn -0.007700 -0.999970 0.000856
vn 0.000000 1.000000 0.000000
vn -0.004440 0.999990 0.000384
vn -0.007701 0.999970 0.000856
vn -0.853772 -0.000033 0.520647
vn -0.853780 -0.000033 0.520634
vn -0.725728 -0.000022 0.687981
vn -0.725728 -0.000022 0.687981
vn -0.973042 -0.000021 0.230627
vn -0.973042 -0.000021 0.230627
vn -1.000000 0.000000 0.000000
vn -1.000000 0.000000 0.000000
vn -0.973042 0.000000 -0.230628
vn -0.973042 0.000000 -0.230628
vn -0.853776 0.000000 -0.520640
vn -0.853776 0.000000 -0.520640
vn -0.725729 0.000000 -0.687981
vn -0.725729 0.000000 -0.687981
vn 0.000000 0.000000 -1.000000
vn 0.000000 0.000000 -1.000000
vn 0.000000 0.000000 -1.000000
vn 0.000000 0.000000 -1.000000
vn 1.000000 0.000000 0.000000
vn 1.000000 0.000000 0.000000
vn 1.000000 0.000000 0.000000
vn 1.000000 0.000000 0.000000
vn 1.000000 0.000000 0.000000
vn 1.000000 0.000000 0.000000
vn 0.000000 0.000000 1.000000
vn 0.000000 0.000000 1.000000
vn 0.000000 0.000000 1.000000
vn 0.000000 0.000000 1.000000
s 1
f 15/3/1 16/5/2 5/6/3 6/8/4
f 9/11/5 12/17/6 13/21/7 8/22/8
f 17/23/9 18/24/10 3/25/11 4/26/12
f 14/27/13 15/3/1 6/8/4 7/28/14
s 3
f 1/15/15 18/10/16 17/9/17
s 1
f 5/6/3 16/5/2 17/23/9 4/26/12
s 4
f 2/16/18 9/51/19 8/52/20
s 1
f 8/22/8 13/21/7 14/27/13 7/28/14
s off
f 10/82/21 20/81/22 12/17/23 9/11/24
f 18/24/25 19/31/26 11/83/27 3/25/28
s 5
f 1/34/29 20/30/30 10/29/31 2/35/32
f 19/84/33 1/34/29 2/35/32 11/32/34
s 4
f 4/12/35 3/49/36 2/16/18
f 2/16/18 5/55/37 4/12/35
f 6/4/38 5/55/37 2/16/18
f 7/14/39 6/4/38 2/16/18
f 2/16/18 8/52/20 7/14/39
f 2/16/18 10/50/40 9/51/19
f 11/20/41 2/16/18 3/49/36
s 3
f 13/7/42 12/42/43 1/15/15
f 1/15/15 14/13/44 13/7/42
f 1/15/15 15/1/45 14/13/44
f 16/2/46 15/1/45 1/15/15
f 1/15/15 17/9/17 16/2/46
f 1/15/15 19/19/47 18/10/16
f 20/18/48 1/15/15 12/42/43
s 8
f 26/74/49 22/69/50 25/75/51
s 9
f 36/63/52 21/59/53 35/64/54
s 8
f 27/73/55 22/69/50 26/74/49
s 9
f 21/59/53 34/65/56 35/64/54
f 21/59/53 38/61/57 39/60/58
f 21/59/53 36/63/52 37/62/59
s 8
f 31/67/60 23/33/61 22/69/50
f 24/76/62 22/69/50 23/33/61
f 22/69/50 24/76/62 25/75/51
f 22/69/50 29/71/63 30/70/64
f 22/69/50 27/73/55 28/72/65
s 9
f 40/57/66 32/39/67 21/59/53
f 33/66/68 21/59/53 32/39/67
f 21/59/53 33/66/68 34/65/56
s 14
f 37/36/69 24/37/70 23/38/71 38/40/72
f 25/41/73 24/37/70 37/36/69 36/43/74
f 35/44/75 26/45/76 25/41/73 36/43/74
f 34/46/77 27/47/78 26/45/76 35/44/75
f 28/48/79 27/47/78 34/46/77 33/53/80
f 29/54/81 28/48/79 33/53/80 32/56/82
s off
f 30/58/83 29/54/84 32/56/85 40/68/86
s 15
f 21/77/87 22/78/88 30/86/89 40/85/90
f 39/79/91 31/87/92 22/78/88 21/77/87
s off
f 38/40/93 23/38/94 31/80/95 39/88/96
s 8
f 22/69/50 28/72/65 29/71/63
s 9
f 21/59/53 37/62/59 38/61/57
